<!-- SVG Icons Collection for PIE PROJECT Dashboard -->
<!-- Based on SnowUI Design System -->

<svg xmlns="http://www.w3.org/2000/svg" style="display: none;">
    <!-- Dashboard -->
    <symbol id="icon-dashboard" viewBox="0 0 24 24" fill="none" stroke="currentColor" stroke-width="2" stroke-linecap="round" stroke-linejoin="round">
        <rect x="3" y="3" width="7" height="7" rx="1"></rect>
        <rect x="14" y="3" width="7" height="7" rx="1"></rect>
        <rect x="3" y="14" width="7" height="7" rx="1"></rect>
        <rect x="14" y="14" width="7" height="7" rx="1"></rect>
    </symbol>

    <!-- Users/Students -->
    <symbol id="icon-users" viewBox="0 0 24 24" fill="none" stroke="currentColor" stroke-width="2" stroke-linecap="round" stroke-linejoin="round">
        <path d="M17 21v-2a4 4 0 0 0-4-4H5a4 4 0 0 0-4 4v2"></path>
        <circle cx="9" cy="7" r="4"></circle>
        <path d="M23 21v-2a4 4 0 0 0-3-3.87"></path>
        <path d="M16 3.13a4 4 0 0 1 0 7.75"></path>
    </symbol>

    <!-- Group -->
    <symbol id="icon-group" viewBox="0 0 24 24" fill="none" stroke="currentColor" stroke-width="2" stroke-linecap="round" stroke-linejoin="round">
        <path d="M18 21a6 6 0 0 0-12 0"></path>
        <circle cx="12" cy="11" r="4"></circle>
        <path d="M22 21a6 6 0 0 0-6-6"></path>
        <circle cx="18" cy="9" r="3"></circle>
        <path d="M2 21a6 6 0 0 1 6-6"></path>
        <circle cx="6" cy="9" r="3"></circle>
    </symbol>

    <!-- Class/Book -->
    <symbol id="icon-class" viewBox="0 0 24 24" fill="none" stroke="currentColor" stroke-width="2" stroke-linecap="round" stroke-linejoin="round">
        <path d="M4 19.5A2.5 2.5 0 0 1 6.5 17H20"></path>
        <path d="M6.5 2H20v20H6.5A2.5 2.5 0 0 1 4 19.5v-15A2.5 2.5 0 0 1 6.5 2z"></path>
        <path d="M8 7h8"></path>
        <path d="M8 11h6"></path>
    </symbol>

    <!-- Project/Folder -->
    <symbol id="icon-project" viewBox="0 0 24 24" fill="none" stroke="currentColor" stroke-width="2" stroke-linecap="round" stroke-linejoin="round">
        <path d="M22 19a2 2 0 0 1-2 2H4a2 2 0 0 1-2-2V5a2 2 0 0 1 2-2h5l2 3h9a2 2 0 0 1 2 2z"></path>
        <line x1="12" y1="11" x2="12" y2="17"></line>
        <line x1="9" y1="14" x2="15" y2="14"></line>
    </symbol>

    <!-- Phases/Layers -->
    <symbol id="icon-phases" viewBox="0 0 24 24" fill="none" stroke="currentColor" stroke-width="2" stroke-linecap="round" stroke-linejoin="round">
        <polygon points="12 2 2 7 12 12 22 7 12 2"></polygon>
        <polyline points="2 17 12 22 22 17"></polyline>
        <polyline points="2 12 12 17 22 12"></polyline>
    </symbol>

    <!-- Absence/Calendar X -->
    <symbol id="icon-absence" viewBox="0 0 24 24" fill="none" stroke="currentColor" stroke-width="2" stroke-linecap="round" stroke-linejoin="round">
        <rect x="3" y="4" width="18" height="18" rx="2" ry="2"></rect>
        <line x1="16" y1="2" x2="16" y2="6"></line>
        <line x1="8" y1="2" x2="8" y2="6"></line>
        <line x1="3" y1="10" x2="21" y2="10"></line>
        <line x1="10" y1="14" x2="14" y2="18"></line>
        <line x1="14" y1="14" x2="10" y2="18"></line>
    </symbol>

    <!-- Certificate/Award -->
    <symbol id="icon-certificate" viewBox="0 0 24 24" fill="none" stroke="currentColor" stroke-width="2" stroke-linecap="round" stroke-linejoin="round">
        <circle cx="12" cy="8" r="6"></circle>
        <path d="M15.477 12.89 17 22l-5-3-5 3 1.523-9.11"></path>
    </symbol>

    <!-- User Settings -->
    <symbol id="icon-user-settings" viewBox="0 0 24 24" fill="none" stroke="currentColor" stroke-width="2" stroke-linecap="round" stroke-linejoin="round">
        <path d="M16 21v-2a4 4 0 0 0-4-4H5a4 4 0 0 0-4 4v2"></path>
        <circle cx="8.5" cy="7" r="4"></circle>
        <circle cx="18" cy="18" r="3"></circle>
        <path d="M18 14v1"></path>
        <path d="M18 21v1"></path>
        <path d="M21.4 16.5l-.8.5"></path>
        <path d="M15.4 19.5l-.8.5"></path>
        <path d="M21.4 19.5l-.8-.5"></path>
        <path d="M15.4 16.5l-.8-.5"></path>
    </symbol>

    <!-- Search -->
    <symbol id="icon-search" viewBox="0 0 24 24" fill="none" stroke="currentColor" stroke-width="2" stroke-linecap="round" stroke-linejoin="round">
        <circle cx="11" cy="11" r="8"></circle>
        <line x1="21" y1="21" x2="16.65" y2="16.65"></line>
    </symbol>

    <!-- Bell/Notification -->
    <symbol id="icon-bell" viewBox="0 0 24 24" fill="none" stroke="currentColor" stroke-width="2" stroke-linecap="round" stroke-linejoin="round">
        <path d="M18 8A6 6 0 0 0 6 8c0 7-3 9-3 9h18s-3-2-3-9"></path>
        <path d="M13.73 21a2 2 0 0 1-3.46 0"></path>
    </symbol>

    <!-- Sun -->
    <symbol id="icon-sun" viewBox="0 0 24 24" fill="none" stroke="currentColor" stroke-width="2" stroke-linecap="round" stroke-linejoin="round">
        <circle cx="12" cy="12" r="5"></circle>
        <line x1="12" y1="1" x2="12" y2="3"></line>
        <line x1="12" y1="21" x2="12" y2="23"></line>
        <line x1="4.22" y1="4.22" x2="5.64" y2="5.64"></line>
        <line x1="18.36" y1="18.36" x2="19.78" y2="19.78"></line>
        <line x1="1" y1="12" x2="3" y2="12"></line>
        <line x1="21" y1="12" x2="23" y2="12"></line>
        <line x1="4.22" y1="19.78" x2="5.64" y2="18.36"></line>
        <line x1="18.36" y1="5.64" x2="19.78" y2="4.22"></line>
    </symbol>

    <!-- Clock -->
    <symbol id="icon-clock" viewBox="0 0 24 24" fill="none" stroke="currentColor" stroke-width="2" stroke-linecap="round" stroke-linejoin="round">
        <circle cx="12" cy="12" r="10"></circle>
        <polyline points="12 6 12 12 16 14"></polyline>
    </symbol>

    <!-- Star -->
    <symbol id="icon-star" viewBox="0 0 24 24" fill="none" stroke="currentColor" stroke-width="2" stroke-linecap="round" stroke-linejoin="round">
        <polygon points="12 2 15.09 8.26 22 9.27 17 14.14 18.18 21.02 12 17.77 5.82 21.02 7 14.14 2 9.27 8.91 8.26 12 2"></polygon>
    </symbol>

    <!-- Plus -->
    <symbol id="icon-plus" viewBox="0 0 24 24" fill="none" stroke="currentColor" stroke-width="2" stroke-linecap="round" stroke-linejoin="round">
        <line x1="12" y1="5" x2="12" y2="19"></line>
        <line x1="5" y1="12" x2="19" y2="12"></line>
    </symbol>

    <!-- Edit/Pencil -->
    <symbol id="icon-edit" viewBox="0 0 24 24" fill="none" stroke="currentColor" stroke-width="2" stroke-linecap="round" stroke-linejoin="round">
        <path d="M11 4H4a2 2 0 0 0-2 2v14a2 2 0 0 0 2 2h14a2 2 0 0 0 2-2v-7"></path>
        <path d="M18.5 2.5a2.121 2.121 0 0 1 3 3L12 15l-4 1 1-4 9.5-9.5z"></path>
    </symbol>

    <!-- Trash -->
    <symbol id="icon-trash" viewBox="0 0 24 24" fill="none" stroke="currentColor" stroke-width="2" stroke-linecap="round" stroke-linejoin="round">
        <polyline points="3 6 5 6 21 6"></polyline>
        <path d="M19 6v14a2 2 0 0 1-2 2H7a2 2 0 0 1-2-2V6m3 0V4a2 2 0 0 1 2-2h4a2 2 0 0 1 2 2v2"></path>
        <line x1="10" y1="11" x2="10" y2="17"></line>
        <line x1="14" y1="11" x2="14" y2="17"></line>
    </symbol>

    <!-- Eye -->
    <symbol id="icon-eye" viewBox="0 0 24 24" fill="none" stroke="currentColor" stroke-width="2" stroke-linecap="round" stroke-linejoin="round">
        <path d="M1 12s4-8 11-8 11 8 11 8-4 8-11 8-11-8-11-8z"></path>
        <circle cx="12" cy="12" r="3"></circle>
    </symbol>

    <!-- Download -->
    <symbol id="icon-download" viewBox="0 0 24 24" fill="none" stroke="currentColor" stroke-width="2" stroke-linecap="round" stroke-linejoin="round">
        <path d="M21 15v4a2 2 0 0 1-2 2H5a2 2 0 0 1-2-2v-4"></path>
        <polyline points="7 10 12 15 17 10"></polyline>
        <line x1="12" y1="15" x2="12" y2="3"></line>
    </symbol>

    <!-- Upload -->
    <symbol id="icon-upload" viewBox="0 0 24 24" fill="none" stroke="currentColor" stroke-width="2" stroke-linecap="round" stroke-linejoin="round">
        <path d="M21 15v4a2 2 0 0 1-2 2H5a2 2 0 0 1-2-2v-4"></path>
        <polyline points="17 8 12 3 7 8"></polyline>
        <line x1="12" y1="3" x2="12" y2="15"></line>
    </symbol>

    <!-- Check -->
    <symbol id="icon-check" viewBox="0 0 24 24" fill="none" stroke="currentColor" stroke-width="2" stroke-linecap="round" stroke-linejoin="round">
        <polyline points="20 6 9 17 4 12"></polyline>
    </symbol>

    <!-- X/Close -->
    <symbol id="icon-x" viewBox="0 0 24 24" fill="none" stroke="currentColor" stroke-width="2" stroke-linecap="round" stroke-linejoin="round">
        <line x1="18" y1="6" x2="6" y2="18"></line>
        <line x1="6" y1="6" x2="18" y2="18"></line>
    </symbol>

    <!-- More Vertical -->
    <symbol id="icon-more" viewBox="0 0 24 24" fill="none" stroke="currentColor" stroke-width="2" stroke-linecap="round" stroke-linejoin="round">
        <circle cx="12" cy="12" r="1"></circle>
        <circle cx="12" cy="5" r="1"></circle>
        <circle cx="12" cy="19" r="1"></circle>
    </symbol>

    <!-- Filter -->
    <symbol id="icon-filter" viewBox="0 0 24 24" fill="none" stroke="currentColor" stroke-width="2" stroke-linecap="round" stroke-linejoin="round">
        <polygon points="22 3 2 3 10 12.46 10 19 14 21 14 12.46 22 3"></polygon>
    </symbol>

    <!-- Logout -->
    <symbol id="icon-logout" viewBox="0 0 24 24" fill="none" stroke="currentColor" stroke-width="2" stroke-linecap="round" stroke-linejoin="round">
        <path d="M9 21H5a2 2 0 0 1-2-2V5a2 2 0 0 1 2-2h4"></path>
        <polyline points="16 17 21 12 16 7"></polyline>
        <line x1="21" y1="12" x2="9" y2="12"></line>
    </symbol>

    <!-- Settings -->
    <symbol id="icon-settings" viewBox="0 0 24 24" fill="none" stroke="currentColor" stroke-width="2" stroke-linecap="round" stroke-linejoin="round">
        <circle cx="12" cy="12" r="3"></circle>
        <path d="M19.4 15a1.65 1.65 0 0 0 .33 1.82l.06.06a2 2 0 0 1 0 2.83 2 2 0 0 1-2.83 0l-.06-.06a1.65 1.65 0 0 0-1.82-.33 1.65 1.65 0 0 0-1 1.51V21a2 2 0 0 1-2 2 2 2 0 0 1-2-2v-.09A1.65 1.65 0 0 0 9 19.4a1.65 1.65 0 0 0-1.82.33l-.06.06a2 2 0 0 1-2.83 0 2 2 0 0 1 0-2.83l.06-.06a1.65 1.65 0 0 0 .33-1.82 1.65 1.65 0 0 0-1.51-1H3a2 2 0 0 1-2-2 2 2 0 0 1 2-2h.09A1.65 1.65 0 0 0 4.6 9a1.65 1.65 0 0 0-.33-1.82l-.06-.06a2 2 0 0 1 0-2.83 2 2 0 0 1 2.83 0l.06.06a1.65 1.65 0 0 0 1.82.33H9a1.65 1.65 0 0 0 1-1.51V3a2 2 0 0 1 2-2 2 2 0 0 1 2 2v.09a1.65 1.65 0 0 0 1 1.51 1.65 1.65 0 0 0 1.82-.33l.06-.06a2 2 0 0 1 2.83 0 2 2 0 0 1 0 2.83l-.06.06a1.65 1.65 0 0 0-.33 1.82V9a1.65 1.65 0 0 0 1.51 1H21a2 2 0 0 1 2 2 2 2 0 0 1-2 2h-.09a1.65 1.65 0 0 0-1.51 1z"></path>
    </symbol>

    <!-- Menu -->
    <symbol id="icon-menu" viewBox="0 0 24 24" fill="none" stroke="currentColor" stroke-width="2" stroke-linecap="round" stroke-linejoin="round">
        <line x1="3" y1="12" x2="21" y2="12"></line>
        <line x1="3" y1="6" x2="21" y2="6"></line>
        <line x1="3" y1="18" x2="21" y2="18"></line>
    </symbol>

    <!-- Chevron Right -->
    <symbol id="icon-chevron-right" viewBox="0 0 24 24" fill="none" stroke="currentColor" stroke-width="2" stroke-linecap="round" stroke-linejoin="round">
        <polyline points="9 18 15 12 9 6"></polyline>
    </symbol>

    <!-- Arrow Right -->
    <symbol id="icon-arrow-right" viewBox="0 0 24 24" fill="none" stroke="currentColor" stroke-width="2" stroke-linecap="round" stroke-linejoin="round">
        <line x1="5" y1="12" x2="19" y2="12"></line>
        <polyline points="12 5 19 12 12 19"></polyline>
    </symbol>

    <!-- Chevron Down -->
    <symbol id="icon-chevron-down" viewBox="0 0 24 24" fill="none" stroke="currentColor" stroke-width="2" stroke-linecap="round" stroke-linejoin="round">
        <polyline points="6 9 12 15 18 9"></polyline>
    </symbol>

    <!-- Chevron Left -->
    <symbol id="icon-chevron-left" viewBox="0 0 24 24" fill="none" stroke="currentColor" stroke-width="2" stroke-linecap="round" stroke-linejoin="round">
        <polyline points="15 18 9 12 15 6"></polyline>
    </symbol>

    <!-- Arrow Up -->
    <symbol id="icon-arrow-up" viewBox="0 0 24 24" fill="none" stroke="currentColor" stroke-width="2" stroke-linecap="round" stroke-linejoin="round">
        <line x1="12" y1="19" x2="12" y2="5"></line>
        <polyline points="5 12 12 5 19 12"></polyline>
    </symbol>

    <!-- Arrow Down -->
    <symbol id="icon-arrow-down" viewBox="0 0 24 24" fill="none" stroke="currentColor" stroke-width="2" stroke-linecap="round" stroke-linejoin="round">
        <line x1="12" y1="5" x2="12" y2="19"></line>
        <polyline points="19 12 12 19 5 12"></polyline>
    </symbol>

    <!-- Trending Up -->
    <symbol id="icon-trending-up" viewBox="0 0 24 24" fill="none" stroke="currentColor" stroke-width="2" stroke-linecap="round" stroke-linejoin="round">
        <polyline points="23 6 13.5 15.5 8.5 10.5 1 18"></polyline>
        <polyline points="17 6 23 6 23 12"></polyline>
    </symbol>

    <!-- Trending Down -->
    <symbol id="icon-trending-down" viewBox="0 0 24 24" fill="none" stroke="currentColor" stroke-width="2" stroke-linecap="round" stroke-linejoin="round">
        <polyline points="23 18 13.5 8.5 8.5 13.5 1 6"></polyline>
        <polyline points="17 18 23 18 23 12"></polyline>
    </symbol>

    <!-- Trophy -->
    <symbol id="icon-trophy" viewBox="0 0 24 24" fill="none" stroke="currentColor" stroke-width="2" stroke-linecap="round" stroke-linejoin="round">
        <path d="M6 9H4.5a2.5 2.5 0 0 1 0-5H6"></path>
        <path d="M18 9h1.5a2.5 2.5 0 0 0 0-5H18"></path>
        <path d="M4 22h16"></path>
        <path d="M10 14.66V17c0 .55-.47.98-.97 1.21C7.85 18.75 7 20.24 7 22"></path>
        <path d="M14 14.66V17c0 .55.47.98.97 1.21C16.15 18.75 17 20.24 17 22"></path>
        <path d="M18 2H6v7a6 6 0 0 0 12 0V2Z"></path>
    </symbol>

    <!-- Chart Bar -->
    <symbol id="icon-chart" viewBox="0 0 24 24" fill="none" stroke="currentColor" stroke-width="2" stroke-linecap="round" stroke-linejoin="round">
        <line x1="18" y1="20" x2="18" y2="10"></line>
        <line x1="12" y1="20" x2="12" y2="4"></line>
        <line x1="6" y1="20" x2="6" y2="14"></line>
    </symbol>

    <!-- Chart Pie -->
    <symbol id="icon-pie" viewBox="0 0 24 24" fill="none" stroke="currentColor" stroke-width="2" stroke-linecap="round" stroke-linejoin="round">
        <path d="M21.21 15.89A10 10 0 1 1 8 2.83"></path>
        <path d="M22 12A10 10 0 0 0 12 2v10z"></path>
    </symbol>

    <!-- Mail -->
    <symbol id="icon-mail" viewBox="0 0 24 24" fill="none" stroke="currentColor" stroke-width="2" stroke-linecap="round" stroke-linejoin="round">
        <path d="M4 4h16c1.1 0 2 .9 2 2v12c0 1.1-.9 2-2 2H4c-1.1 0-2-.9-2-2V6c0-1.1.9-2 2-2z"></path>
        <polyline points="22,6 12,13 2,6"></polyline>
    </symbol>

    <!-- Phone -->
    <symbol id="icon-phone" viewBox="0 0 24 24" fill="none" stroke="currentColor" stroke-width="2" stroke-linecap="round" stroke-linejoin="round">
        <path d="M22 16.92v3a2 2 0 0 1-2.18 2 19.79 19.79 0 0 1-8.63-3.07 19.5 19.5 0 0 1-6-6 19.79 19.79 0 0 1-3.07-8.67A2 2 0 0 1 4.11 2h3a2 2 0 0 1 2 1.72 12.84 12.84 0 0 0 .7 2.81 2 2 0 0 1-.45 2.11L8.09 9.91a16 16 0 0 0 6 6l1.27-1.27a2 2 0 0 1 2.11-.45 12.84 12.84 0 0 0 2.81.7A2 2 0 0 1 22 16.92z"></path>
    </symbol>

    <!-- Calendar -->
    <symbol id="icon-calendar" viewBox="0 0 24 24" fill="none" stroke="currentColor" stroke-width="2" stroke-linecap="round" stroke-linejoin="round">
        <rect x="3" y="4" width="18" height="18" rx="2" ry="2"></rect>
        <line x1="16" y1="2" x2="16" y2="6"></line>
        <line x1="8" y1="2" x2="8" y2="6"></line>
        <line x1="3" y1="10" x2="21" y2="10"></line>
    </symbol>

    <!-- Check Circle -->
    <symbol id="icon-check-circle" viewBox="0 0 24 24" fill="none" stroke="currentColor" stroke-width="2" stroke-linecap="round" stroke-linejoin="round">
        <path d="M22 11.08V12a10 10 0 1 1-5.93-9.14"></path>
        <polyline points="22 4 12 14.01 9 11.01"></polyline>
    </symbol>

    <!-- X Circle -->
    <symbol id="icon-x-circle" viewBox="0 0 24 24" fill="none" stroke="currentColor" stroke-width="2" stroke-linecap="round" stroke-linejoin="round">
        <circle cx="12" cy="12" r="10"></circle>
        <line x1="15" y1="9" x2="9" y2="15"></line>
        <line x1="9" y1="9" x2="15" y2="15"></line>
    </symbol>

    <!-- Alert Circle -->
    <symbol id="icon-alert" viewBox="0 0 24 24" fill="none" stroke="currentColor" stroke-width="2" stroke-linecap="round" stroke-linejoin="round">
        <circle cx="12" cy="12" r="10"></circle>
        <line x1="12" y1="8" x2="12" y2="12"></line>
        <line x1="12" y1="16" x2="12.01" y2="16"></line>
    </symbol>

    <!-- Info -->
    <symbol id="icon-info" viewBox="0 0 24 24" fill="none" stroke="currentColor" stroke-width="2" stroke-linecap="round" stroke-linejoin="round">
        <circle cx="12" cy="12" r="10"></circle>
        <line x1="12" y1="16" x2="12" y2="12"></line>
        <line x1="12" y1="8" x2="12.01" y2="8"></line>
    </symbol>

    <!-- File Text -->
    <symbol id="icon-file" viewBox="0 0 24 24" fill="none" stroke="currentColor" stroke-width="2" stroke-linecap="round" stroke-linejoin="round">
        <path d="M14 2H6a2 2 0 0 0-2 2v16a2 2 0 0 0 2 2h12a2 2 0 0 0 2-2V8z"></path>
        <polyline points="14 2 14 8 20 8"></polyline>
        <line x1="16" y1="13" x2="8" y2="13"></line>
        <line x1="16" y1="17" x2="8" y2="17"></line>
        <polyline points="10 9 9 9 8 9"></polyline>
    </symbol>

    <!-- Printer -->
    <symbol id="icon-printer" viewBox="0 0 24 24" fill="none" stroke="currentColor" stroke-width="2" stroke-linecap="round" stroke-linejoin="round">
        <polyline points="6 9 6 2 18 2 18 9"></polyline>
        <path d="M6 18H4a2 2 0 0 1-2-2v-5a2 2 0 0 1 2-2h16a2 2 0 0 1 2 2v5a2 2 0 0 1-2 2h-2"></path>
        <rect x="6" y="14" width="12" height="8"></rect>
    </symbol>

    <!-- Refresh -->
    <symbol id="icon-refresh" viewBox="0 0 24 24" fill="none" stroke="currentColor" stroke-width="2" stroke-linecap="round" stroke-linejoin="round">
        <polyline points="23 4 23 10 17 10"></polyline>
        <polyline points="1 20 1 14 7 14"></polyline>
        <path d="M3.51 9a9 9 0 0 1 14.85-3.36L23 10M1 14l4.64 4.36A9 9 0 0 0 20.49 15"></path>
    </symbol>

    <!-- Home -->
    <symbol id="icon-home" viewBox="0 0 24 24" fill="none" stroke="currentColor" stroke-width="2" stroke-linecap="round" stroke-linejoin="round">
        <path d="M3 9l9-7 9 7v11a2 2 0 0 1-2 2H5a2 2 0 0 1-2-2z"></path>
        <polyline points="9 22 9 12 15 12 15 22"></polyline>
    </symbol>

    <!-- User -->
    <symbol id="icon-user" viewBox="0 0 24 24" fill="none" stroke="currentColor" stroke-width="2" stroke-linecap="round" stroke-linejoin="round">
        <path d="M20 21v-2a4 4 0 0 0-4-4H8a4 4 0 0 0-4 4v2"></path>
        <circle cx="12" cy="7" r="4"></circle>
    </symbol>

    <!-- Lock -->
    <symbol id="icon-lock" viewBox="0 0 24 24" fill="none" stroke="currentColor" stroke-width="2" stroke-linecap="round" stroke-linejoin="round">
        <rect x="3" y="11" width="18" height="11" rx="2" ry="2"></rect>
        <path d="M7 11V7a5 5 0 0 1 10 0v4"></path>
    </symbol>

    <!-- External Link -->
    <symbol id="icon-external" viewBox="0 0 24 24" fill="none" stroke="currentColor" stroke-width="2" stroke-linecap="round" stroke-linejoin="round">
        <path d="M18 13v6a2 2 0 0 1-2 2H5a2 2 0 0 1-2-2V8a2 2 0 0 1 2-2h6"></path>
        <polyline points="15 3 21 3 21 9"></polyline>
        <line x1="10" y1="14" x2="21" y2="3"></line>
    </symbol>

    <!-- Copy -->
    <symbol id="icon-copy" viewBox="0 0 24 24" fill="none" stroke="currentColor" stroke-width="2" stroke-linecap="round" stroke-linejoin="round">
        <rect x="9" y="9" width="13" height="13" rx="2" ry="2"></rect>
        <path d="M5 15H4a2 2 0 0 1-2-2V4a2 2 0 0 1 2-2h9a2 2 0 0 1 2 2v1"></path>
    </symbol>

    <!-- Grid -->
    <symbol id="icon-grid" viewBox="0 0 24 24" fill="none" stroke="currentColor" stroke-width="2" stroke-linecap="round" stroke-linejoin="round">
        <rect x="3" y="3" width="7" height="7"></rect>
        <rect x="14" y="3" width="7" height="7"></rect>
        <rect x="14" y="14" width="7" height="7"></rect>
        <rect x="3" y="14" width="7" height="7"></rect>
    </symbol>

    <!-- List -->
    <symbol id="icon-list" viewBox="0 0 24 24" fill="none" stroke="currentColor" stroke-width="2" stroke-linecap="round" stroke-linejoin="round">
        <line x1="8" y1="6" x2="21" y2="6"></line>
        <line x1="8" y1="12" x2="21" y2="12"></line>
        <line x1="8" y1="18" x2="21" y2="18"></line>
        <line x1="3" y1="6" x2="3.01" y2="6"></line>
        <line x1="3" y1="12" x2="3.01" y2="12"></line>
        <line x1="3" y1="18" x2="3.01" y2="18"></line>
    </symbol>
</svg>
